<?xml version="1.0" standalone="no"?><!DOCTYPE svg PUBLIC "-//W3C//DTD SVG 1.1//EN" "http://www.w3.org/Graphics/SVG/1.1/DTD/svg11.dtd"><svg t="1684127823693" class="icon" viewBox="0 0 1024 1024" version="1.1" xmlns="http://www.w3.org/2000/svg" p-id="26127" id="mx_n_1684127823694" xmlns:xlink="http://www.w3.org/1999/xlink" width="200" height="200"><path d="M24.380952 0m243.809524 0l487.619048 0q243.809524 0 243.809524 243.809524l0 341.333333q0 243.809524-243.809524 243.809524l-487.619048 0q-243.809524 0-243.809524-243.809524l0-341.333333q0-243.809524 243.809524-243.809524Z" fill="#515151" p-id="26128" data-spm-anchor-id="a313x.7781069.0.i12" class="selected"></path><path d="M243.809524 950.857143m36.571428 0l463.238096 0q36.571429 0 36.571428 36.571428l0 0q0 36.571429-36.571428 36.571429l-463.238096 0q-36.571429 0-36.571428-36.571429l0 0q0-36.571429 36.571428-36.571428Z" fill="#515151" p-id="26129" data-spm-anchor-id="a313x.7781069.0.i13" class="selected"></path><path d="M320.609524 602.063238a142.811429 142.811429 0 0 1-60.001524-60.001524 171.641905 171.641905 0 0 1-16.774095-48.188952v-288h77.348571v224.877714q0 59.428571 24.380953 88.588191a84.626286 84.626286 0 0 0 68.693333 29.171809 83.943619 83.943619 0 0 0 68.120381-29.171809q24.380952-29.159619 24.380952-88.588191v-224.877714h81.310476v244.504381a192.377905 192.377905 0 0 1-20.723809 91.684571 142.872381 142.872381 0 0 1-60.001524 60.001524 194.389333 194.389333 0 0 1-93.086476 21.028572 195.657143 195.657143 0 0 1-93.647238-21.028572z m377.392762 14.299429v-410.477715h81.310476v410.477715z" fill="#FFFFFF" p-id="26130"></path></svg>